<?xml version="1.0" standalone="no"?>
<!DOCTYPE svg PUBLIC "-//W3C//DTD SVG 20010904//EN"
 "http://www.w3.org/TR/2001/REC-SVG-20010904/DTD/svg10.dtd">
<svg version="1.0" xmlns="http://www.w3.org/2000/svg"
 width="399.000000pt" height="150.000000pt" viewBox="0 0 399.000000 150.000000"
 preserveAspectRatio="xMidYMid meet">

<g transform="translate(0.000000,150.000000) scale(0.100000,-0.100000)"
fill="#000000" stroke="none">
<path d="M310 745 l0 -345 113 0 c199 0 288 29 370 120 66 73 90 144 85 245
-5 87 -25 137 -82 208 -68 85 -164 117 -358 117 l-128 0 0 -345z m315 186
c147 -67 161 -267 25 -357 -34 -22 -56 -28 -121 -32 l-79 -5 0 207 0 206 68 0
c43 0 81 -7 107 -19z"/>
<path d="M2367 1027 l-59 -22 4 -205 c3 -191 5 -208 27 -252 39 -80 135 -147
209 -148 l32 0 0 65 c0 62 -1 65 -24 65 -32 0 -85 45 -102 87 -8 18 -14 60
-14 93 l0 60 70 0 70 0 0 60 0 59 -67 3 -68 3 -3 78 c-2 42 -6 77 -10 76 -4 0
-33 -10 -65 -22z"/>
<path d="M2887 900 c-60 -10 -137 -59 -170 -108 -50 -72 -57 -102 -57 -252 l0
-141 63 3 62 3 5 137 c4 118 8 140 26 165 19 26 65 55 107 67 14 4 17 17 17
71 0 36 -1 64 -2 64 -2 -1 -25 -5 -51 -9z"/>
<path d="M3073 887 l-63 -21 0 -233 0 -233 65 0 65 0 0 255 c0 140 -1 255 -2
254 -2 0 -31 -10 -65 -22z"/>
<path d="M1119 881 c-70 -27 -107 -60 -137 -121 -83 -170 36 -360 227 -360 95
0 203 80 229 169 29 94 8 185 -58 252 -71 73 -169 96 -261 60z m135 -126 c89
-42 87 -177 -4 -215 -99 -41 -200 63 -153 158 18 37 70 72 106 72 11 0 33 -7
51 -15z"/>
<path d="M3422 881 c-63 -22 -114 -67 -145 -131 -21 -42 -22 -58 -22 -260 l0
-215 63 -22 62 -22 0 96 0 95 33 -8 c59 -15 159 -10 200 10 87 43 136 123 137
221 0 114 -68 209 -172 240 -66 19 -91 19 -156 -4z m133 -125 c41 -17 65 -60
65 -117 0 -93 -116 -145 -189 -83 -36 30 -53 82 -41 125 12 40 28 59 65 75 39
17 58 17 100 0z"/>
<path d="M2050 865 c-17 -18 -34 -25 -59 -25 -81 0 -126 -57 -156 -196 -22
-102 -38 -125 -96 -131 -41 -5 -46 -3 -57 21 -6 14 -28 34 -48 43 -34 17 -37
17 -72 -2 -28 -15 -39 -29 -46 -56 -23 -93 82 -154 152 -89 13 13 35 20 59 20
49 0 102 28 130 69 12 17 27 63 33 104 25 150 85 198 151 122 25 -28 38 -35
69 -35 51 0 90 39 90 90 0 79 -97 121 -150 65z m98 -27 c7 -7 12 -24 12 -38 0
-46 -44 -66 -82 -36 -21 15 -24 56 -6 74 15 15 61 15 76 0z m-503 -349 c0 -27
-5 -35 -27 -43 -59 -21 -94 63 -38 91 36 18 65 -4 65 -48z"/>
</g>
</svg>
